<svg width="63" height="62" viewBox="0 0 63 62" fill="none" xmlns="http://www.w3.org/2000/svg">
<circle cx="31.22" cy="31" r="30" stroke="#CCAA60" stroke-width="2"/>
<path d="M39.1802 35.8312C38.9821 35.6202 38.2827 34.9964 36.9971 34.171C35.7019 33.3385 34.7468 32.8193 34.4728 32.6983C34.4486 32.6876 34.422 32.6836 34.3958 32.6869C34.3696 32.6902 34.3448 32.7006 34.324 32.7169C33.8827 33.0611 33.1397 33.6933 33.0999 33.7274C32.8426 33.9479 32.8426 33.9479 32.632 33.8792C32.2616 33.7578 31.111 33.1468 30.1085 32.142C29.1059 31.1371 28.4634 29.9581 28.342 29.5881C28.2726 29.3772 28.2726 29.3772 28.4938 29.1199C28.5279 29.08 29.1605 28.337 29.5047 27.8961C29.521 27.8753 29.5314 27.8505 29.5347 27.8243C29.5379 27.7981 29.534 27.7715 29.5233 27.7473C29.4023 27.473 28.8831 26.5182 28.0506 25.2231C27.2241 23.9378 26.601 23.2384 26.39 23.0404C26.3706 23.0221 26.3467 23.0094 26.3207 23.0036C26.2947 22.9978 26.2677 22.9991 26.2424 23.0073C25.5049 23.2608 24.7933 23.5842 24.1173 23.9731C23.4648 24.3524 22.847 24.7886 22.2712 25.2766C22.2511 25.2937 22.236 25.3159 22.2276 25.3409C22.2192 25.3659 22.2177 25.3927 22.2234 25.4185C22.3027 25.7881 22.6818 27.331 23.8581 29.4682C25.0584 31.6494 25.8902 32.767 27.6529 34.5235C29.4155 36.2801 30.5684 37.162 32.7519 38.3623C34.8891 39.5386 36.4328 39.9181 36.8016 39.9967C36.8274 40.0023 36.8543 40.0008 36.8794 39.9924C36.9044 39.984 36.9267 39.9689 36.9439 39.9488C37.4318 39.373 37.8679 38.7553 38.247 38.1027C38.6359 37.4267 38.9593 36.7152 39.2128 35.9777C39.2209 35.9526 39.2222 35.9258 39.2164 35.9C39.2107 35.8742 39.1982 35.8505 39.1802 35.8312Z" fill="#CCAA60"/>
</svg>
