<svg width="70" height="70" viewBox="0 0 70 70" fill="none" xmlns="http://www.w3.org/2000/svg">
<rect width="70" height="70" fill="#CCAA60"/>
<path d="M47.9368 42.379C47.6222 42.0439 46.5114 41.0531 44.4695 39.7422C42.4125 38.4199 40.8955 37.5954 40.4604 37.4032C40.422 37.3862 40.3798 37.3799 40.3381 37.3851C40.2965 37.3903 40.2571 37.4068 40.2241 37.4327C39.5232 37.9793 38.3431 38.9834 38.2798 39.0377C37.8712 39.3878 37.8712 39.3878 37.5367 39.2787C36.9485 39.0859 35.1211 38.1155 33.5288 36.5196C31.9365 34.9237 30.9161 33.0511 30.7232 32.4635C30.6129 32.1284 30.6129 32.1284 30.9643 31.7198C31.0185 31.6565 32.0232 30.4764 32.5699 29.7761C32.5958 29.7431 32.6123 29.7037 32.6175 29.6621C32.6227 29.6205 32.6164 29.5782 32.5994 29.5399C32.4072 29.1041 31.5827 27.5878 30.2604 25.5308C28.9477 23.4895 27.9581 22.3787 27.623 22.0641C27.5922 22.0351 27.5542 22.0149 27.5129 22.0057C27.4717 21.9964 27.4287 21.9985 27.3885 22.0117C26.2172 22.4142 25.087 22.9278 24.0134 23.5455C22.977 24.148 21.9959 24.8407 21.0813 25.6158C21.0494 25.6429 21.0255 25.6782 21.0121 25.7179C20.9987 25.7576 20.9964 25.8002 21.0054 25.8412C21.1313 26.4282 21.7334 28.8787 23.6018 32.2731C25.5081 35.7373 26.8292 37.5122 29.6287 40.3021C32.4282 43.092 34.2592 44.4926 37.7271 46.3989C41.1215 48.2673 43.5733 48.8699 44.1591 48.9947C44.2001 49.0036 44.2428 49.0013 44.2826 48.9879C44.3224 48.9745 44.3578 48.9506 44.3851 48.9188C45.16 48.0042 45.8526 47.0231 46.4548 45.9867C47.0723 44.9131 47.586 43.7829 47.9886 42.6116C48.0015 42.5717 48.0035 42.5291 47.9944 42.4882C47.9853 42.4473 47.9654 42.4096 47.9368 42.379Z" fill="white"/>
</svg>
