<svg width="58" height="56" viewBox="0 0 58 56" fill="none" xmlns="http://www.w3.org/2000/svg">
<g id="Icon">
<path id="Vector 15" d="M51.931 4.86692L48.0862 13.3522C47.9099 13.7412 47.8188 14.1633 47.8188 14.5904V52.4391C47.8188 53.5437 48.7142 54.4391 49.8188 54.4391H54.9541C56.0587 54.4391 56.9541 53.5437 56.9541 52.4391V14.5904C56.9541 14.1633 56.8629 13.7412 56.6867 13.3522L52.8419 4.86692C52.6645 4.4754 52.1084 4.4754 51.931 4.86692Z" stroke="#D1B06B" stroke-width="2"/>
<path id="Vector 16" d="M47.8188 14.5903H52.9574H56.9541" stroke="#D1B06B" stroke-width="2"/>
<rect id="Rectangle 377" x="6.83414" y="24.644" width="28.0038" height="2.33365" rx="1.16683" fill="#D1B06B"/>
<rect id="Rectangle 381" x="8.16779" y="8.47559" width="10.1678" height="7.83413" rx="1.5" stroke="#D1B06B" stroke-width="2"/>
<rect id="Rectangle 379" x="6.83414" y="36.3125" width="28.0038" height="2.33365" rx="1.16683" fill="#D1B06B"/>
<rect id="Rectangle 382" x="6.83414" y="42.1465" width="17.5024" height="2.33365" rx="1.16683" fill="#D1B06B"/>
<rect id="Rectangle 378" x="6.83414" y="30.4785" width="28.0038" height="2.33365" rx="1.16683" fill="#D1B06B"/>
<path id="Vector 17" d="M47.8188 49.3306H56.9541" stroke="#D1B06B" stroke-width="2"/>
<path id="Vector 7" d="M1 8.30762V47.6925C1 51.5585 4.13401 54.6925 8 54.6925H34.2603C38.1263 54.6925 41.2603 51.5585 41.2603 47.6925V16.0358C41.2603 14.0484 40.4154 12.1546 38.9365 10.8269L30.3278 3.09866C29.0432 1.94548 27.3778 1.30762 25.6516 1.30762H8C4.13401 1.30762 1 4.44162 1 8.30762Z" stroke="#D1B06B" stroke-width="2"/>
<path id="Vector 8" d="M25.9808 1.5249V11.1966C25.9808 13.4058 27.7716 15.1966 29.9808 15.1966H40.2902" stroke="#D1B06B" stroke-width="2" stroke-linecap="round"/>
</g>
</svg>
