<svg width="31" height="28" viewBox="0 0 31 28" fill="none" xmlns="http://www.w3.org/2000/svg">
<path d="M15.5 28C15.9786 27.9994 16.446 27.8579 16.8413 27.5939C22.6974 23.7037 25.2332 21.0365 26.6318 19.3689C29.6124 15.8142 31.0394 12.1647 30.9992 8.2126C30.9522 3.68375 27.2391 0 22.722 0C19.4374 0 17.1624 1.81052 15.8376 3.31844C15.7956 3.36572 15.7437 3.40364 15.6855 3.42963C15.6273 3.45561 15.564 3.46906 15.5 3.46906C15.436 3.46906 15.3727 3.45561 15.3145 3.42963C15.2563 3.40364 15.2044 3.36572 15.1624 3.31844C13.8376 1.80906 11.5626 0 8.27798 0C3.76087 0 0.0477734 3.68375 0.000827789 8.21333C-0.0394096 12.1661 1.38905 15.8156 4.36817 19.3696C5.76682 21.0372 8.30257 23.7045 14.1587 27.5946C14.5541 27.8584 15.0215 27.9996 15.5 28Z" fill="#D1B06B"/>
</svg>
