<svg width="21" height="20" viewBox="0 0 21 20" fill="none" xmlns="http://www.w3.org/2000/svg">
<path d="M15.1115 1.66652C16.2156 1.66982 17.2736 2.10989 18.0543 2.89064C18.8351 3.67138 19.2751 4.72935 19.2784 5.83348V14.1665C19.2751 15.2707 18.8351 16.3286 18.0543 17.1094C17.2736 17.8901 16.2156 18.3302 15.1115 18.3335H6.77843C5.67429 18.3302 4.61633 17.8901 3.83558 17.1094C3.05484 16.3286 2.61476 15.2707 2.61146 14.1665V5.83348C2.61476 4.72935 3.05484 3.67138 3.83558 2.89064C4.61633 2.10989 5.67429 1.66982 6.77843 1.66652H15.1115ZM15.1115 0H6.77843C3.56995 0 0.944946 2.625 0.944946 5.83348V14.1665C0.944946 17.375 3.56995 20 6.77843 20H15.1115C18.3199 20 20.9449 17.375 20.9449 14.1665V5.83348C20.9449 2.625 18.3199 0 15.1115 0Z" fill="white"/>
<path d="M16.3615 5.83374C16.1142 5.83374 15.8726 5.76043 15.667 5.62308C15.4614 5.48573 15.3012 5.2905 15.2066 5.06209C15.112 4.83369 15.0872 4.58235 15.1355 4.33988C15.1837 4.0974 15.3028 3.87467 15.4776 3.69986C15.6524 3.52504 15.8751 3.40599 16.1176 3.35776C16.3601 3.30953 16.6114 3.33428 16.8398 3.42889C17.0682 3.5235 17.2634 3.68372 17.4008 3.88928C17.5382 4.09484 17.6115 4.33651 17.6115 4.58374C17.6118 4.74799 17.5797 4.9107 17.517 5.06251C17.4543 5.21433 17.3623 5.35227 17.2461 5.46841C17.13 5.58456 16.9921 5.67662 16.8402 5.73931C16.6884 5.802 16.5257 5.83409 16.3615 5.83374ZM10.9449 6.66678C11.6042 6.66678 12.2487 6.86228 12.7969 7.22857C13.3451 7.59486 13.7724 8.11548 14.0247 8.72459C14.277 9.3337 14.343 10.004 14.2144 10.6506C14.0858 11.2972 13.7683 11.8912 13.3021 12.3574C12.8359 12.8236 12.2419 13.1411 11.5953 13.2697C10.9486 13.3983 10.2784 13.3323 9.66928 13.08C9.06016 12.8277 8.53955 12.4004 8.17326 11.8522C7.80697 11.3041 7.61147 10.6596 7.61147 10.0003C7.61241 9.11645 7.96392 8.26912 8.58886 7.64418C9.21381 7.01923 10.0611 6.66772 10.9449 6.66678ZM10.9449 5.00026C9.95604 5.00026 8.98934 5.2935 8.1671 5.84291C7.34485 6.39232 6.70399 7.17321 6.32555 8.08684C5.94711 9.00047 5.8481 10.0058 6.04102 10.9757C6.23395 11.9456 6.71015 12.8365 7.40941 13.5358C8.10868 14.2351 8.99959 14.7113 9.9695 14.9042C10.9394 15.0971 11.9447 14.9981 12.8584 14.6197C13.772 14.2412 14.5529 13.6004 15.1023 12.7781C15.6517 11.9559 15.9449 10.9892 15.9449 10.0003C15.9449 8.67418 15.4182 7.40241 14.4805 6.46473C13.5428 5.52704 12.271 5.00026 10.9449 5.00026Z" fill="white"/>
</svg>
