<svg width="21" height="20" viewBox="0 0 21 20" fill="none" xmlns="http://www.w3.org/2000/svg">
<path d="M18.564 0H3.3259C2.01161 0 0.944946 1.06667 0.944946 2.38095V17.619C0.944946 18.9333 2.01161 20 3.3259 20H18.564C19.8783 20 20.9449 18.9333 20.9449 17.619V2.38095C20.9449 1.06667 19.8783 0 18.564 0ZM7.13542 7.61905V16.6667H4.27828V7.61905H7.13542ZM4.27828 4.98571C4.27828 4.31905 4.84971 3.80952 5.70685 3.80952C6.56399 3.80952 7.10209 4.31905 7.13542 4.98571C7.13542 5.65238 6.60209 6.19048 5.70685 6.19048C4.84971 6.19048 4.27828 5.65238 4.27828 4.98571ZM17.6116 16.6667H14.7545C14.7545 16.6667 14.7545 12.2571 14.7545 11.9048C14.7545 10.9524 14.2783 10 13.0878 9.98095H13.0497C11.8973 9.98095 11.4211 10.9619 11.4211 11.9048C11.4211 12.3381 11.4211 16.6667 11.4211 16.6667H8.56399V7.61905H11.4211V8.83809C11.4211 8.83809 12.3402 7.61905 14.1878 7.61905C16.0783 7.61905 17.6116 8.91905 17.6116 11.5524V16.6667Z" fill="white"/>
</svg>
