<svg width="20" height="20" viewBox="0 0 20 20" fill="none" xmlns="http://www.w3.org/2000/svg">
<g id="Insta">
<path id="Vector" d="M13.8699 2.14589C14.9506 2.149 15.9861 2.56377 16.7502 3.29962C17.5144 4.03547 17.9451 5.03261 17.9484 6.07325V13.9271C17.9451 14.9678 17.5144 15.9649 16.7502 16.7008C15.9861 17.4366 14.9506 17.8514 13.8699 17.8545H5.71398C4.63331 17.8514 3.59782 17.4366 2.83367 16.7008C2.06951 15.9649 1.63879 14.9678 1.63556 13.9271V6.07325C1.63879 5.03261 2.06951 4.03547 2.83367 3.29962C3.59782 2.56377 4.63331 2.149 5.71398 2.14589H13.8699ZM13.8699 0.575195H5.71398C2.57367 0.575195 0.00445557 3.04926 0.00445557 6.07325V13.9271C0.00445557 16.9511 2.57367 19.4252 5.71398 19.4252H13.8699C17.0102 19.4252 19.5795 16.9511 19.5795 13.9271V6.07325C19.5795 3.04926 17.0102 0.575195 13.8699 0.575195Z" fill="#1F2732"/>
<path id="Vector_2" d="M15.0934 6.07354C14.8514 6.07354 14.6148 6.00444 14.4137 5.87499C14.2125 5.74553 14.0556 5.56153 13.963 5.34626C13.8705 5.13099 13.8462 4.8941 13.8934 4.66557C13.9406 4.43704 14.0572 4.22711 14.2283 4.06235C14.3994 3.89759 14.6174 3.78538 14.8547 3.73992C15.092 3.69446 15.338 3.7178 15.5615 3.80697C15.7851 3.89613 15.9762 4.04714 16.1106 4.24088C16.245 4.43462 16.3168 4.6624 16.3168 4.89541C16.3171 5.05022 16.2857 5.20357 16.2244 5.34665C16.163 5.48974 16.0729 5.61975 15.9592 5.72921C15.8456 5.83868 15.7105 5.92545 15.562 5.98453C15.4134 6.04362 15.2541 6.07387 15.0934 6.07354ZM9.79194 6.85867C10.4372 6.85867 11.068 7.04294 11.6046 7.38816C12.1411 7.73339 12.5593 8.22407 12.8062 8.79816C13.0532 9.37225 13.1178 10.004 12.9919 10.6134C12.866 11.2229 12.5553 11.7827 12.099 12.2221C11.6427 12.6615 11.0613 12.9607 10.4285 13.0819C9.79556 13.2031 9.13955 13.1409 8.54338 12.9031C7.94721 12.6653 7.43766 12.2626 7.07915 11.746C6.72065 11.2293 6.5293 10.6219 6.5293 10.0005C6.53022 9.16749 6.87426 8.36888 7.48593 7.77987C8.09759 7.19086 8.92692 6.85956 9.79194 6.85867ZM9.79194 5.28798C8.82405 5.28798 7.8779 5.56436 7.07312 6.08218C6.26835 6.59999 5.64111 7.33599 5.27071 8.19708C4.90031 9.05818 4.8034 10.0057 4.99223 10.9198C5.18105 11.834 5.64714 12.6737 6.33154 13.3327C7.01594 13.9918 7.88793 14.4406 8.83722 14.6224C9.78652 14.8043 10.7705 14.7109 11.6647 14.3543C12.5589 13.9976 13.3232 13.3936 13.8609 12.6186C14.3987 11.8436 14.6857 10.9325 14.6857 10.0005C14.6857 8.75065 14.1701 7.552 13.2523 6.66824C12.3346 5.78447 11.0898 5.28798 9.79194 5.28798Z" fill="#1F2732"/>
</g>
</svg>
