<svg width="27" height="20" viewBox="0 0 27 20" fill="none" xmlns="http://www.w3.org/2000/svg">
<path d="M13.3854 0C9.2594 0 5.38489 0.3125 3.3219 0.749512C1.94739 1.06201 0.758424 1.99951 0.509399 3.4375C0.260374 4.93652 0.00891113 7.1875 0.00891113 10C0.00891113 12.8125 0.257936 15 0.570436 16.5625C0.821899 17.937 2.00842 18.938 3.38294 19.2505C5.57288 19.6875 9.32044 20 13.4464 20C17.5724 20 21.32 19.6875 23.5075 19.2505C24.8844 18.938 26.0709 18.0005 26.32 16.5625C26.5714 15 26.8839 12.7515 26.945 9.93896C26.945 7.12646 26.6325 4.87549 26.32 3.31299C26.0709 1.93848 24.8844 0.9375 23.5075 0.625C21.32 0.3125 17.5089 0 13.3854 0ZM13.3854 1.25C17.8849 1.25 21.5079 1.62354 23.2584 1.93604C24.1959 2.1875 24.9454 2.8125 25.07 3.62549C25.4459 5.62501 25.695 7.75147 25.695 9.93897C25.6339 12.6245 25.3214 14.812 25.07 16.3745C24.8844 17.561 23.6344 17.937 23.2584 18.064C21.0075 18.501 17.2575 18.811 13.5075 18.811C9.75745 18.811 5.94641 18.562 3.75891 18.064C2.82141 17.8125 2.0719 17.1875 1.94739 16.3745C1.4469 14.624 1.25891 12.312 1.25891 10C1.25891 7.12404 1.51037 5.00001 1.7594 3.68897C1.94739 2.50001 3.25842 2.12403 3.57092 1.99952C5.63391 1.56251 9.44738 1.25 13.3854 1.25ZM10.0089 5V15L18.7589 10L10.0089 5ZM11.2589 7.12646L16.2589 10L11.2589 12.8735V7.12646Z" fill="white"/>
</svg>
