<svg width="21" height="20" viewBox="0 0 21 20" fill="none" xmlns="http://www.w3.org/2000/svg">
<g id="linkedin">
<path id="Vector" d="M18.1985 0H2.96042C1.64613 0 0.579468 1.06667 0.579468 2.38095V17.619C0.579468 18.9333 1.64613 20 2.96042 20H18.1985C19.5128 20 20.5795 18.9333 20.5795 17.619V2.38095C20.5795 1.06667 19.5128 0 18.1985 0ZM6.76994 7.61905V16.6667H3.9128V7.61905H6.76994ZM3.9128 4.98571C3.9128 4.31905 4.48423 3.80952 5.34137 3.80952C6.19852 3.80952 6.73661 4.31905 6.76994 4.98571C6.76994 5.65238 6.23661 6.19048 5.34137 6.19048C4.48423 6.19048 3.9128 5.65238 3.9128 4.98571ZM17.2461 16.6667H14.389C14.389 16.6667 14.389 12.2571 14.389 11.9048C14.389 10.9524 13.9128 10 12.7223 9.98095H12.6842C11.5318 9.98095 11.0557 10.9619 11.0557 11.9048C11.0557 12.3381 11.0557 16.6667 11.0557 16.6667H8.19852V7.61905H11.0557V8.83809C11.0557 8.83809 11.9747 7.61905 13.8223 7.61905C15.7128 7.61905 17.2461 8.91905 17.2461 11.5524V16.6667Z" fill="#1F2732"/>
</g>
</svg>
