<?xml version="1.0" encoding="utf-8"?>
<!-- Generator: Adobe Illustrator 26.0.2, SVG Export Plug-In . SVG Version: 6.00 Build 0)  -->
<svg version="1.1" id="Слой_1" xmlns="http://www.w3.org/2000/svg" xmlns:xlink="http://www.w3.org/1999/xlink" x="0px" y="0px"
	 viewBox="0 0 182.3 55.2" style="enable-background:new 0 0 182.3 55.2;" xml:space="preserve">
<style type="text/css">
	.st0{fill:#FFFFFF;}
	.st1{fill:#D6B64C;}
</style>
<path class="st0" d="M76.3,20.3H66V5.9h3.2v11.7h7.1V20.3z"/>
<path class="st0" d="M84.6,20.3c-0.1-0.4-0.2-0.6-0.2-1c-0.9,0.9-2.1,1.3-3.4,1.3c-2.3,0-3.7-1.2-3.7-3.2c0-2.7,2.5-3.1,4.6-3.3
	c1.9-0.2,2.6-0.4,2.6-1.3c0-1-0.6-1.4-1.9-1.4c-1.3,0-1.9,0.4-2.1,1.6h-2.7c0.2-2.3,1.8-3.5,4.8-3.5c2.1,0,4.6,0.5,4.6,3.4v4.5
	c0,1,0,2,0.4,2.8H84.6z M82.3,15.8c-1,0.2-2.1,0.3-2.1,1.6c0,0.9,0.6,1.4,1.6,1.4c1.5,0,2.6-0.8,2.6-2.3v-1.2
	C83.7,15.6,83.1,15.7,82.3,15.8z"/>
<path class="st0" d="M91.5,9.9l2,7.1l1.8-7.1H98l1.8,7.1l2-7.1h2.9l-3.3,10.5h-3l-1.9-7l-1.8,7h-3L88.4,9.9H91.5z"/>
<path class="st0" d="M119.6,10.2c-0.1-1.4-1.1-2.2-2.7-2.2c-1.5,0-2.3,0.6-2.3,1.6c0,1.3,1.5,1.4,4.4,2.2c2.6,0.7,4.2,1.7,4.2,4.1
	c0,3.4-3,4.7-5.9,4.7c-3.9,0-6.2-1.9-6.3-5.1h3.2c0.1,2,1.3,2.7,3.3,2.7c1.7,0,2.7-0.7,2.7-1.9c0-1.1-1-1.3-4-2.2
	c-2.4-0.7-4.6-1.3-4.6-4.2c0-2.6,2.2-4.3,5.6-4.3c3,0,5.5,1.4,5.6,4.6L119.6,10.2L119.6,10.2z"/>
<path class="st0" d="M135.3,15.1c0,3.4-2.1,5.6-5.4,5.6c-3.3,0-5.4-2.2-5.4-5.6c0-3.3,2.2-5.5,5.5-5.5
	C133.1,9.6,135.3,11.8,135.3,15.1z M127.3,15.1c0,2.2,0.9,3.4,2.5,3.4c1.6,0,2.5-1.3,2.5-3.4c0-2.1-1-3.3-2.6-3.3
	C128.3,11.8,127.3,13,127.3,15.1z"/>
<path class="st0" d="M142.1,20.6c-3.2,0-5.3-2.2-5.3-5.4c0-3.4,2.1-5.6,5.4-5.6c2.8,0,4.7,1.5,4.9,3.9h-2.8c-0.2-1.2-1-1.8-2.1-1.8
	c-1.6,0-2.5,1.3-2.5,3.4c0,2.1,0.9,3.3,2.4,3.3c1.2,0,2-0.7,2.2-2.1h2.8C146.8,19,144.9,20.6,142.1,20.6z"/>
<path class="st0" d="M151.8,8.3h-2.9V5.9h2.9V8.3z M151.8,20.3h-2.9V9.9h2.9V20.3z"/>
<path class="st0" d="M158.9,20.6c-3.2,0-5.3-2.2-5.3-5.5c0-3.2,2.2-5.6,5.3-5.6c3.2,0,5.2,2.3,5.2,6v0.3h-7.5c0,1.8,0.9,2.8,2.5,2.8
	c1.1,0,1.7-0.5,2.1-1.5h2.8C163.2,19.4,161.3,20.6,158.9,20.6z M158.9,11.7c-1.3,0-2.2,0.9-2.3,2.4h4.6
	C161,12.7,160.3,11.7,158.9,11.7z"/>
<path class="st0" d="M171.4,11.8h-2.1v4.9c0,1,0,1.5,1.3,1.5c0.3,0,0.5,0,0.9,0v2.2c-0.8,0.1-1.1,0.1-1.8,0.1
	c-2.5,0-3.2-0.6-3.2-3.2v-5.4h-1.8v-2h1.8V6.7h2.9v3.2h2.1V11.8z"/>
<path class="st0" d="M178.5,20.3c-0.8,2.3-1.3,3.8-4,3.8c-0.9,0-0.5,0-1.9,0v-2.4h1.4c1,0,1.5-0.5,1.5-1.4c0-0.1,0-0.3-0.1-0.4
	l-3.8-10h3.1L177,17l2.3-7.1h3L178.5,20.3z"/>
<path class="st0" d="M75.2,39.5c0,3.4-1.9,5.5-4.9,5.5c-3,0-5-2.2-5-5.5c0-3.3,2-5.5,5-5.5C73.3,34,75.2,36.1,75.2,39.5z M66.6,39.5
	c0,2.7,1.4,4.5,3.7,4.5c2.2,0,3.6-1.7,3.6-4.4c0-2.7-1.4-4.5-3.7-4.5C68.1,35,66.6,36.8,66.6,39.5z"/>
<path class="st0" d="M81.4,31.3c-0.4-0.1-0.6-0.1-0.8-0.1c-1.5,0-1.5,0.8-1.5,2v1h2.1v1h-2.1v9.4h-1.3v-9.4H76v-1h1.8v-1.2
	c0-1.9,0.6-2.9,2.7-2.9c0.4,0,0.5,0,1,0.1V31.3z"/>
<path class="st0" d="M101.1,37.5c0,4.5-2.8,7.5-6.8,7.5c-4.1,0-6.8-3-6.8-7.6c0-4.5,2.7-7.6,6.8-7.6C98.4,29.9,101.1,33,101.1,37.5z
	 M88.9,37.4c0,3.9,2.2,6.4,5.4,6.4c3.3,0,5.4-2.5,5.4-6.3c0-3.8-2.2-6.4-5.5-6.4C91.1,31.1,88.9,33.6,88.9,37.4z"/>
<path class="st0" d="M104.3,36.2c0.8-1.5,1.9-2.3,3.7-2.3c2,0,3.6,1.1,3.6,3.6v7.1h-1.3V38c0-2.2-1.1-2.9-2.7-2.9
	c-1.9,0-3.3,1.3-3.3,3.9v5.6h-1.3V34.2h1.2V36.2z"/>
<path class="st0" d="M118.1,35.3H116v6.6c0,1.1,0,1.8,1.3,1.8c0.2,0,0.5,0,0.8-0.1v1.1c-0.5,0.1-0.7,0.1-1.1,0.1
	c-0.9,0-1.9-0.2-2.2-1.2c-0.1-0.4-0.1-0.7-0.1-2.3v-6h-1.8v-1h1.8v-3.2h1.3v3.2h2.2V35.3z"/>
<path class="st0" d="M129.1,44.6c-0.3,0.1-0.6,0.2-1,0.2c-1.2,0-1.4-1-1.4-1.9c-0.8,1.4-2.2,2.1-3.9,2.1c-2.1,0-3.4-1.1-3.4-2.9
	c0-1.9,1.3-3,3.9-3.2c1.6-0.2,2.5-0.2,3-0.6c0.3-0.2,0.4-0.5,0.4-1c0-1.7-1.1-2.3-2.7-2.3c-1.8,0-2.7,0.8-2.8,2.5h-1.2
	c0.1-2.2,1.6-3.5,4.2-3.5c2.4,0,3.8,1,3.8,3v5.7c0,0.6,0,1.1,0.7,1.1c0.2,0,0.3,0,0.5-0.1V44.6z M123.8,39.7
	c-1.3,0.2-3.1,0.5-3.1,2.2c0,1.2,0.9,2,2.4,2c1.9,0,3.6-1.2,3.6-3.2V39C126.3,39.5,125.2,39.5,123.8,39.7z"/>
<path class="st0" d="M135.8,35.4c-0.1,0-0.3,0-0.3,0c-1.6,0-2.9,1-3.3,2.5c-0.2,0.6-0.2,1.2-0.2,2.6v4.3h-1.3V34.3h1.2v2.5
	c0.9-1.9,1.9-2.6,4-2.7L135.8,35.4L135.8,35.4z"/>
<path class="st0" d="M138.2,32.3h-1.3v-2.1h1.3V32.3z M138.2,44.7h-1.3V34.3h1.3V44.7z"/>
<path class="st0" d="M150,39.5c0,3.4-1.9,5.5-4.9,5.5c-3,0-5-2.2-5-5.5c0-3.3,2-5.5,5-5.5C148.1,34,150,36.1,150,39.5z M141.4,39.5
	c0,2.7,1.4,4.5,3.7,4.5c2.2,0,3.6-1.7,3.6-4.4c0-2.7-1.4-4.5-3.7-4.5C142.9,35,141.4,36.8,141.4,39.5z"/>
<path class="st1" d="M27.5,45.9c-10.1,0-18.3-8.2-18.3-18.3S17.4,9.3,27.5,9.3s18.3,8.2,18.3,18.3S37.6,45.9,27.5,45.9z M27.5,11.4
	c-8.9,0-16.1,7.2-16.1,16.1s7.2,16.1,16.1,16.1s16.1-7.2,16.1-16.1S36.4,11.4,27.5,11.4z"/>
<path class="st1" d="M27.7,50.2c-12.7,0-23-10.3-23-23c0-12.7,10.3-23,23-23c12.7,0,23,10.3,23,23C50.6,39.9,40.3,50.2,27.7,50.2z
	 M27.7,6.5c-11.5,0-20.8,9.3-20.8,20.8c0,11.5,9.3,20.8,20.8,20.8s20.8-9.3,20.8-20.8C48.5,15.8,39.1,6.5,27.7,6.5z"/>
<path class="st1" d="M27.6,55.2C12.4,55.2,0,42.8,0,27.6C0,12.4,12.4,0,27.6,0c15.2,0,27.6,12.4,27.6,27.6
	C55.2,42.8,42.8,55.2,27.6,55.2z M27.6,2.1c-14,0-25.4,11.4-25.4,25.4S13.6,53,27.6,53C41.6,53,53,41.6,53,27.6S41.6,2.1,27.6,2.1z"
	/>
</svg>
