<svg width="63" height="62" viewBox="0 0 63 62" fill="none" xmlns="http://www.w3.org/2000/svg">
<circle cx="31.22" cy="31" r="30" stroke="#CCAA60" stroke-width="2"/>
<path d="M39.5771 24.7998H22.8628C22.6923 24.7998 22.5288 24.8688 22.4083 24.9915C22.2877 25.1143 22.22 25.2808 22.22 25.4544V38.5453C22.22 38.7189 22.2877 38.8853 22.4083 39.0081C22.5288 39.1308 22.6923 39.1998 22.8628 39.1998H39.5771C39.7476 39.1998 39.9111 39.1308 40.0317 39.0081C40.1522 38.8853 40.22 38.7189 40.22 38.5453V25.4544C40.22 25.2808 40.1522 25.1143 40.0317 24.9915C39.9111 24.8688 39.7476 24.7998 39.5771 24.7998ZM31.6145 33.171C31.5017 33.2603 31.3629 33.3088 31.22 33.3088C31.0771 33.3088 30.9382 33.2603 30.8254 33.171L24.5322 28.1875L25.3214 27.1541L31.22 31.8251L37.1186 27.1541L37.9077 28.1875L31.6145 33.171Z" fill="#CCAA60"/>
</svg>
