<svg width="217" height="84" viewBox="0 0 217 84" fill="none" xmlns="http://www.w3.org/2000/svg">
<g clip-path="url(#clip0_1_603)">
<path d="M1.28783 70.6294V80.6422H0V70.6294H1.28783Z" fill="#D1B06B"/>
<path d="M28.1077 80.6422H26.8648V76.4751C26.9128 75.8953 26.7821 75.3146 26.4905 74.8113C26.349 74.6576 26.1742 74.5384 25.9795 74.4631C25.7847 74.3877 25.5753 74.3581 25.3673 74.3766C25.1336 74.3841 24.9048 74.4463 24.6994 74.5583C24.4939 74.6702 24.3175 74.8287 24.1843 75.0212C23.8521 75.4499 23.6729 75.9776 23.6752 76.5201V80.5972H22.3724V76.4751C22.3724 75.1111 21.8483 74.4366 20.8749 74.4366C20.6412 74.4383 20.4111 74.4948 20.203 74.6015C19.995 74.7082 19.8148 74.8622 19.6769 75.0512C19.3509 75.5148 19.1876 76.0736 19.2127 76.64V80.7021H17.8799V73.4773H19.1528V74.6165C19.3617 74.2119 19.6806 73.8748 20.0728 73.6441C20.465 73.4133 20.9144 73.2983 21.3691 73.3124C21.8234 73.3077 22.268 73.4438 22.6419 73.7021C22.9987 73.9677 23.261 74.3407 23.3907 74.7664C23.5997 74.3124 23.936 73.929 24.3587 73.6628C24.7814 73.3967 25.2723 73.2593 25.7717 73.2674C27.2691 73.2674 28.1227 74.2417 28.1227 76.1754L28.1077 80.6422Z" fill="#D1B06B"/>
<path d="M14.885 80.7175H13.6271V76.6255C13.6502 76.0448 13.4989 75.4705 13.1928 74.9766C13.0505 74.8044 12.8684 74.6693 12.6623 74.5832C12.4562 74.497 12.2323 74.4623 12.0098 74.482C11.7735 74.4871 11.5417 74.5482 11.3335 74.6603C11.1253 74.7723 10.9465 74.9321 10.8118 75.1265C10.488 75.5587 10.3144 76.0852 10.3177 76.6255V80.6876H9.04481V76.4756C9.04481 75.1265 8.53567 74.452 7.54733 74.452C7.31226 74.4461 7.07946 74.4993 6.87019 74.6066C6.66092 74.714 6.48186 74.8721 6.34935 75.0666C6.01807 75.5227 5.84932 76.0769 5.87015 76.6404V80.7025H4.55237V73.5826H5.81025V74.7068C6.03426 74.3139 6.36287 73.9909 6.75947 73.7739C7.15607 73.5568 7.60508 73.4543 8.05647 73.4777C8.51179 73.4658 8.95861 73.6026 9.32934 73.8674C9.68938 74.133 9.95662 74.5054 10.0931 74.9317C10.2963 74.4765 10.6292 74.0915 11.0501 73.8248C11.471 73.5582 11.9611 73.4218 12.4591 73.4327C13.9566 73.4327 14.8101 74.3921 14.8101 76.3407L14.885 80.7175Z" fill="#D1B06B"/>
<path d="M31.3572 70.9741C31.3546 70.8712 31.3732 70.7688 31.4118 70.6734C31.4505 70.578 31.5084 70.4915 31.5819 70.4195C31.6536 70.3405 31.7417 70.2782 31.8399 70.2368C31.9382 70.1953 32.0443 70.1759 32.1509 70.1797C32.256 70.1767 32.3606 70.1952 32.4584 70.2338C32.5562 70.2724 32.6452 70.3305 32.7199 70.4045C32.796 70.4785 32.8565 70.5671 32.8978 70.6649C32.9391 70.7628 32.9603 70.8679 32.9603 70.9741C32.9603 71.0803 32.9391 71.1854 32.8978 71.2833C32.8565 71.3811 32.796 71.4697 32.7199 71.5437C32.5607 71.6779 32.3591 71.7515 32.1509 71.7515C31.9427 71.7515 31.7411 71.6779 31.5819 71.5437C31.5079 71.4688 31.4499 71.3798 31.4113 71.2819C31.3727 71.184 31.3543 71.0793 31.3572 70.9741ZM31.507 80.6422V73.4773H32.8547V80.6272L31.507 80.6422Z" fill="#D1B06B"/>
<path d="M42.5734 80.0426C42.5734 82.6807 41.2856 83.9998 38.7249 83.9998C37.9279 84.0201 37.1375 83.8506 36.4188 83.5051V82.291C37.1148 82.7005 37.9029 82.9274 38.7099 82.9505C40.432 82.9505 41.3005 82.0362 41.3005 80.2075V79.473C41.0639 79.8516 40.7424 80.1698 40.3617 80.4025C39.9809 80.6353 39.5512 80.7761 39.1067 80.8139C38.6621 80.8517 38.2149 80.7855 37.8004 80.6204C37.3858 80.4553 37.0153 80.1959 36.7183 79.8627C36.1534 79.1372 35.8666 78.2333 35.9096 77.3145C35.8519 76.2688 36.1707 75.2371 36.8081 74.4066C37.0976 74.063 37.4605 73.789 37.87 73.6048C38.2796 73.4206 38.7253 73.3309 39.1741 73.3424C39.5991 73.3173 40.0227 73.4105 40.398 73.6115C40.7733 73.8126 41.0857 74.1137 41.3005 74.4816V73.4773H42.5734V80.0426ZM41.3005 76.3852C41.306 76.1253 41.2598 75.867 41.1647 75.6251C41.0695 75.3832 40.9274 75.1627 40.7465 74.9762C40.573 74.7835 40.3603 74.6302 40.1226 74.5268C39.885 74.4233 39.6279 74.3721 39.3688 74.3766C39.0594 74.3614 38.751 74.4232 38.4714 74.5567C38.1917 74.6901 37.9495 74.8909 37.7665 75.1411C37.3465 75.7459 37.1409 76.4742 37.1825 77.2096C37.1596 77.8684 37.3544 78.5164 37.7365 79.0533C37.9123 79.2813 38.1398 79.4641 38.4002 79.5866C38.6607 79.7091 38.9465 79.7678 39.234 79.7578C39.5183 79.7656 39.8006 79.7089 40.0599 79.5921C40.3192 79.4753 40.5488 79.3014 40.7315 79.0833C41.1389 78.6162 41.3484 78.0086 41.3155 77.3895L41.3005 76.3852Z" fill="#D1B06B"/>
<path d="M49.9709 74.7516C49.7112 74.5895 49.408 74.5111 49.1024 74.5267C48.8578 74.5263 48.6173 74.5896 48.4046 74.7105C48.1919 74.8314 48.0143 75.0057 47.8894 75.2162C47.5504 75.753 47.3832 76.3805 47.4102 77.0149V80.6424H46.1523V73.4775H47.4102V74.9764C47.5104 74.5533 47.7491 74.176 48.0883 73.9043C48.4275 73.6327 48.8477 73.4825 49.2821 73.4775C49.5068 73.4624 49.732 73.4983 49.941 73.5824L49.9709 74.7516Z" fill="#D1B06B"/>
<path d="M52.6814 73.9869C53.4218 73.5403 54.2729 73.3118 55.1372 73.3274C56.8593 73.3274 57.7129 74.2268 57.7129 76.0405V80.6422H56.47V79.473C56.2812 79.7926 56.026 80.0678 55.7217 80.2802C55.4174 80.4925 55.0711 80.6369 54.7062 80.7037C54.3414 80.7705 53.9664 80.7581 53.6067 80.6673C53.2471 80.5765 52.9111 80.4095 52.6215 80.1775C52.4177 79.9864 52.2574 79.7536 52.1515 79.4949C52.0456 79.2363 51.9965 78.9579 52.0075 78.6786C52.0075 77.3445 52.8012 76.5651 54.3735 76.3552L56.5 76.0555C56.5 74.8863 56.0208 74.3017 55.0025 74.3017C54.1446 74.3007 53.3152 74.6093 52.6664 75.1711L52.6814 73.9869ZM54.7928 77.2846C54.3544 77.3061 53.9323 77.4573 53.5799 77.7193C53.4683 77.84 53.3817 77.9816 53.3252 78.1359C53.2686 78.2903 53.2432 78.4544 53.2504 78.6186C53.2443 78.7765 53.2734 78.9337 53.3356 79.0789C53.3978 79.2241 53.4914 79.3536 53.6098 79.458C53.8833 79.6707 54.222 79.782 54.5682 79.7728C54.8231 79.7829 55.0771 79.7371 55.3124 79.6387C55.5478 79.5404 55.7589 79.3917 55.9309 79.2032C56.3019 78.7948 56.4958 78.2557 56.47 77.7043V77.0298L54.7928 77.2846Z" fill="#D1B06B"/>
<path d="M64.5564 80.5674C64.2114 80.7332 63.8306 80.8104 63.4483 80.7922C62.1605 80.7922 61.5315 80.0877 61.5315 78.6637V74.5416H60.3036V73.4774H61.5315V71.7836L62.8044 71.3789V73.4774H64.5714V74.5267H62.8044V78.4239C62.7629 78.7765 62.8478 79.1324 63.044 79.4282C63.1407 79.5414 63.2635 79.6292 63.4018 79.6841C63.5401 79.7389 63.6897 79.7591 63.8376 79.7429C64.1016 79.744 64.3589 79.6599 64.5714 79.5031L64.5564 80.5674Z" fill="#D1B06B"/>
<path d="M67.2968 70.9742C67.2866 70.7968 67.3396 70.6215 67.4466 70.4796C67.5183 70.4006 67.6064 70.3382 67.7047 70.2968C67.8029 70.2554 67.9091 70.2359 68.0156 70.2397C68.232 70.2364 68.4412 70.317 68.5996 70.4646C68.7428 70.6197 68.8223 70.823 68.8223 71.0342C68.8223 71.2453 68.7428 71.4487 68.5996 71.6038C68.4397 71.7472 68.2302 71.8225 68.0156 71.8136C67.9115 71.8194 67.8073 71.8037 67.7094 71.7676C67.6115 71.7316 67.5221 71.6758 67.4466 71.6038C67.378 71.5157 67.3292 71.4139 67.3033 71.3053C67.2775 71.1967 67.2753 71.0838 67.2968 70.9742ZM67.4466 80.6423V73.4774H68.7045V80.6273L67.4466 80.6423Z" fill="#D1B06B"/>
<path d="M71.7893 77.1497C71.762 76.6404 71.8352 76.1308 72.0048 75.6498C72.1744 75.1689 72.437 74.7261 72.7776 74.3467C73.1306 74.0018 73.5507 73.7333 74.0119 73.5579C74.473 73.3826 74.9653 73.3041 75.4581 73.3275C75.9239 73.301 76.3899 73.3757 76.8242 73.5465C77.2584 73.7172 77.6506 73.98 77.9738 74.3168C78.586 75.0941 78.9189 76.055 78.9189 77.0448C78.9189 78.0346 78.586 78.9955 77.9738 79.7729C77.2725 80.4272 76.3494 80.791 75.3907 80.791C74.432 80.791 73.5089 80.4272 72.8075 79.7729C72.1405 79.0641 71.7753 78.1233 71.7893 77.1497ZM73.0921 77.1497C73.0489 77.8529 73.2676 78.5472 73.706 79.0983C73.9168 79.3318 74.1763 79.5159 74.4662 79.6377C74.756 79.7595 75.0691 79.8158 75.3832 79.8028C75.6924 79.8241 76.0024 79.7729 76.2883 79.6532C76.5743 79.5335 76.8284 79.3486 77.0304 79.1133C77.4429 78.5338 77.6438 77.8299 77.5995 77.1198C77.6436 76.4049 77.4429 75.6964 77.0304 75.1112C76.8284 74.8759 76.5743 74.691 76.2883 74.5713C76.0024 74.4516 75.6924 74.4004 75.3832 74.4217C75.0659 74.4058 74.7493 74.4638 74.4582 74.5913C74.1672 74.7187 73.9097 74.9121 73.706 75.1562C73.2583 75.7055 73.0195 76.3959 73.0322 77.1048L73.0921 77.1497Z" fill="#D1B06B"/>
<path d="M87.9621 80.6423H86.7641V76.5802C86.7641 75.0813 86.225 74.3768 85.1618 74.3768C84.8993 74.3637 84.6374 74.411 84.396 74.5149C84.1546 74.6189 83.9402 74.7767 83.7691 74.9764C83.4197 75.3974 83.2289 75.9279 83.23 76.4753V80.5524H81.9572V73.4774H83.23V74.6616C83.4555 74.2414 83.7935 73.8926 84.2062 73.6543C84.6189 73.416 85.0899 73.2976 85.5661 73.3125C85.9006 73.2924 86.2353 73.3495 86.5443 73.4795C86.8533 73.6094 87.1283 73.8087 87.3481 74.062C87.8041 74.7019 88.0214 75.4817 87.9621 76.2654V80.6423Z" fill="#D1B06B"/>
<path d="M103.311 79.2784C102.85 79.7653 102.292 80.1502 101.673 80.4084C101.054 80.6665 100.388 80.7922 99.7173 80.7773C98.82 80.8237 97.9348 80.5532 97.2165 80.0128C96.9116 79.7517 96.6707 79.424 96.5123 79.055C96.3539 78.686 96.2824 78.2855 96.303 77.8844C96.3259 77.2038 96.5624 76.5478 96.9791 76.0096C97.3958 75.4714 97.9715 75.0784 98.6241 74.8865C98.2739 74.6579 97.9845 74.3474 97.781 73.9817C97.5775 73.6161 97.466 73.2064 97.4561 72.788C97.4437 72.473 97.5033 72.1594 97.6305 71.8711C97.7577 71.5827 97.949 71.3272 98.1899 71.1242C98.7292 70.6845 99.412 70.4603 100.107 70.4946C100.764 70.4638 101.409 70.6774 101.919 71.0942C102.137 71.2777 102.312 71.5073 102.431 71.7664C102.55 72.0256 102.61 72.3079 102.607 72.5932C102.597 73.1446 102.405 73.6772 102.061 74.1082C101.717 74.5392 101.241 74.8444 100.706 74.9764C101.855 75.5168 102.808 76.4023 103.431 77.5096C104.203 76.4438 104.603 75.1532 104.569 73.8373C104.571 73.5127 104.525 73.1896 104.434 72.8779H105.632C105.71 73.1813 105.746 73.4941 105.737 73.8073C105.727 74.6169 105.575 75.4184 105.288 76.1756C104.999 76.9988 104.585 77.7724 104.06 78.469C104.315 78.8365 104.617 79.169 104.958 79.4582C105.202 79.6357 105.496 79.7302 105.797 79.728C106.112 79.7133 106.421 79.6422 106.711 79.5182V80.6574C106.351 80.79 105.971 80.856 105.587 80.8522C105.206 80.8573 104.83 80.7644 104.494 80.5824C104.026 80.2211 103.626 79.7796 103.311 79.2784ZM102.727 78.379C102.305 77.6918 101.803 77.0577 101.23 76.4904C100.728 76.0371 100.143 75.6858 99.5077 75.4561C98.9352 75.6584 98.4211 75.9981 98.0102 76.4454C97.7049 76.8504 97.5465 77.3473 97.5609 77.8544C97.548 78.1149 97.5953 78.3749 97.6992 78.6141C97.8031 78.8533 97.9607 79.0652 98.1599 79.2334C98.5879 79.5648 99.1164 79.7394 99.6574 79.728C100.237 79.7463 100.814 79.6346 101.345 79.4012C101.876 79.1678 102.348 78.8186 102.727 78.379ZM99.7323 74.3919C100.855 74.0171 101.409 73.4475 101.409 72.6981C101.417 72.5277 101.387 72.3577 101.322 72.1999C101.257 72.0421 101.16 71.9002 101.035 71.7837C100.774 71.5582 100.437 71.4403 100.092 71.454C99.7041 71.4314 99.3229 71.5604 99.0285 71.8137C98.895 71.9342 98.7897 72.0826 98.7198 72.2484C98.6499 72.4142 98.6173 72.5932 98.6241 72.773C98.6374 73.122 98.7501 73.46 98.9492 73.7469C99.1482 74.0337 99.4251 74.2576 99.7472 74.3919H99.7323Z" fill="#D1B06B"/>
<path d="M120.098 80.6422H114.827V70.6294H116.115V79.4731H120.098V80.6422Z" fill="#D1B06B"/>
<path d="M128.589 77.3898H123.587C123.574 78.0364 123.798 78.6654 124.216 79.1585C124.433 79.3737 124.694 79.5399 124.981 79.6459C125.267 79.7519 125.573 79.7953 125.878 79.7731C126.677 79.7711 127.452 79.5021 128.08 79.0086V80.1328C127.337 80.6143 126.462 80.8502 125.579 80.8073C125.13 80.8367 124.68 80.7644 124.262 80.5957C123.845 80.427 123.471 80.1663 123.168 79.833C122.585 79.0425 122.276 78.0825 122.29 77.0998C122.303 76.1172 122.638 75.1661 123.243 74.3919C123.532 74.0483 123.895 73.7743 124.305 73.5901C124.714 73.4059 125.16 73.3162 125.609 73.3277C126.017 73.3058 126.425 73.3752 126.803 73.5307C127.181 73.6863 127.52 73.9241 127.795 74.227C128.36 74.9402 128.642 75.8367 128.589 76.7452V77.3898ZM127.316 76.3705C127.356 75.8325 127.196 75.2987 126.867 74.8716C126.71 74.6905 126.513 74.5477 126.293 74.4542C126.072 74.3607 125.833 74.3189 125.594 74.3319C125.349 74.3305 125.106 74.3804 124.882 74.4785C124.658 74.5766 124.456 74.7207 124.291 74.9015C123.9 75.3114 123.653 75.8375 123.587 76.4005L127.316 76.3705Z" fill="#D1B06B"/>
<path d="M137.783 80.0426C137.783 82.6807 136.495 83.9998 133.935 83.9998C133.138 84.0184 132.348 83.8489 131.629 83.5051V82.291C132.325 82.7005 133.113 82.9274 133.92 82.9505C135.642 82.9505 136.51 82.0362 136.51 80.2075V79.473C136.274 79.8516 135.952 80.1698 135.572 80.4025C135.191 80.6353 134.761 80.7761 134.317 80.8139C133.872 80.8517 133.425 80.7855 133.01 80.6204C132.596 80.4553 132.225 80.1959 131.928 79.8627C131.363 79.1372 131.076 78.2333 131.119 77.3145C131.062 76.2688 131.381 75.2371 132.018 74.4066C132.307 74.063 132.67 73.789 133.08 73.6048C133.489 73.4206 133.935 73.3309 134.384 73.3424C134.809 73.3173 135.233 73.4105 135.608 73.6115C135.983 73.8126 136.296 74.1137 136.51 74.4816V73.4773H137.783V80.0426ZM136.51 76.3852C136.519 76.1249 136.475 75.8655 136.379 75.6232C136.284 75.3808 136.14 75.1606 135.956 74.9762C135.784 74.7819 135.572 74.6276 135.334 74.524C135.096 74.4204 134.838 74.3701 134.579 74.3766C134.269 74.3614 133.961 74.4232 133.681 74.5567C133.402 74.6901 133.159 74.8909 132.976 75.1411C132.556 75.7459 132.351 76.4742 132.392 77.2096C132.362 77.8717 132.563 78.5237 132.961 79.0533C133.135 79.2841 133.362 79.469 133.623 79.5918C133.884 79.7146 134.171 79.7716 134.459 79.7578C134.743 79.7624 135.024 79.7043 135.283 79.5877C135.542 79.4711 135.772 79.2989 135.956 79.0833C136.36 78.6147 136.564 78.0068 136.525 77.3895L136.51 76.3852Z" fill="#D1B06B"/>
<path d="M141.527 73.9869C142.267 73.5403 143.119 73.3118 143.983 73.3274C145.705 73.3274 146.558 74.2268 146.558 76.0405V80.6422H145.316V79.473C145.105 79.8708 144.787 80.2012 144.398 80.4265C144.008 80.6518 143.564 80.7629 143.114 80.7471C142.513 80.7739 141.924 80.5703 141.467 80.1775C141.263 79.9864 141.103 79.7536 140.997 79.4949C140.891 79.2363 140.842 78.9579 140.853 78.6786C140.853 77.3445 141.647 76.5651 143.219 76.3552L145.346 76.0555C145.346 74.8863 144.866 74.3017 143.848 74.3017C142.99 74.3007 142.161 74.6093 141.512 75.1711L141.527 73.9869ZM143.638 77.2846C143.2 77.3061 142.778 77.4573 142.425 77.7193C142.314 77.84 142.227 77.9816 142.171 78.1359C142.114 78.2903 142.089 78.4544 142.096 78.6186C142.09 78.7765 142.119 78.9337 142.181 79.0789C142.243 79.2241 142.337 79.3536 142.455 79.458C142.729 79.6707 143.068 79.782 143.414 79.7728C143.669 79.7829 143.923 79.7371 144.158 79.6387C144.393 79.5404 144.604 79.3917 144.777 79.2032C145.147 78.7948 145.341 78.2557 145.316 77.7043V77.0298L143.638 77.2846Z" fill="#D1B06B"/>
<path d="M149.973 80.6424V70.1499H151.246V80.6424H149.973Z" fill="#D1B06B"/>
<path d="M159.646 79.0984C160.238 79.5449 160.958 79.7868 161.698 79.7879C162.686 79.7879 163.196 79.4582 163.196 78.8136C163.197 78.6847 163.17 78.5571 163.116 78.4403C163.061 78.3235 162.981 78.2205 162.881 78.1391C162.472 77.8671 162.029 77.6503 161.563 77.4946C160.995 77.3063 160.481 76.9822 160.066 76.5502C159.919 76.3472 159.815 76.117 159.758 75.8731C159.701 75.6292 159.694 75.3764 159.736 75.1296C159.777 74.8827 159.868 74.6466 160.002 74.435C160.135 74.2234 160.31 74.0406 160.515 73.8971C161.099 73.5066 161.79 73.3075 162.492 73.3275C163.071 73.3223 163.645 73.4292 164.184 73.6423V74.8714C163.644 74.5235 163.014 74.3412 162.372 74.3468C162.022 74.3314 161.677 74.4257 161.384 74.6166C161.267 74.6893 161.171 74.791 161.105 74.9119C161.04 75.0327 161.007 75.1686 161.009 75.3061C161.003 75.4314 161.024 75.5565 161.07 75.6729C161.117 75.7894 161.188 75.8943 161.279 75.9806C161.655 76.2366 162.063 76.4432 162.492 76.5952C163.094 76.7717 163.647 77.0846 164.109 77.5096C164.273 77.7102 164.393 77.9426 164.462 78.192C164.531 78.4415 164.548 78.7027 164.512 78.959C164.475 79.2153 164.386 79.4613 164.249 79.6814C164.113 79.9014 163.933 80.0908 163.72 80.2376C163.101 80.6382 162.374 80.8372 161.638 80.8072C160.97 80.824 160.308 80.6801 159.706 80.3875L159.646 79.0984Z" fill="#D1B06B"/>
<path d="M173.289 77.3898H168.302C168.274 78.0387 168.5 78.6729 168.931 79.1585C169.146 79.3718 169.405 79.5368 169.689 79.6428C169.973 79.7487 170.276 79.7931 170.578 79.7731C171.377 79.7758 172.154 79.5062 172.779 79.0086V80.1328C172.042 80.6141 171.172 80.8501 170.294 80.8073C169.843 80.8305 169.392 80.7554 168.974 80.5872C168.555 80.419 168.177 80.1616 167.868 79.833C167.256 79.06 166.947 78.0899 166.999 77.105C166.961 76.1113 167.304 75.1408 167.957 74.3919C168.247 74.0483 168.61 73.7743 169.019 73.5901C169.429 73.4059 169.875 73.3162 170.324 73.3277C170.732 73.3058 171.14 73.3752 171.518 73.5307C171.896 73.6863 172.235 73.9241 172.51 74.227C173.069 74.9424 173.346 75.8386 173.289 76.7452V77.3898ZM172.031 76.3705C172.065 75.8307 171.9 75.2972 171.566 74.8716C171.413 74.6859 171.217 74.5399 170.996 74.4459C170.774 74.352 170.533 74.3129 170.294 74.3319C170.049 74.3332 169.807 74.3844 169.583 74.4823C169.359 74.5802 169.158 74.7229 168.991 74.9015C168.604 75.3128 168.362 75.8391 168.302 76.4005L172.031 76.3705Z" fill="#D1B06B"/>
<path d="M180.117 74.7516C179.857 74.5895 179.554 74.5111 179.249 74.5267C179.006 74.5345 178.768 74.6013 178.557 74.7215C178.346 74.8416 178.167 75.0114 178.036 75.2162C177.697 75.753 177.529 76.3805 177.556 77.0149V80.6424H176.298V73.4775H177.556V74.9764C177.657 74.5533 177.895 74.176 178.234 73.9043C178.574 73.6327 178.994 73.4825 179.428 73.4775C179.653 73.4624 179.878 73.4983 180.087 73.5824L180.117 74.7516Z" fill="#D1B06B"/>
<path d="M188.982 73.4775L186.152 80.6274H184.879L182.199 73.4775H183.576L185.328 78.5889C185.45 78.9174 185.531 79.2598 185.568 79.6082C185.609 79.2667 185.684 78.9303 185.793 78.6039L187.649 73.4775H188.982Z" fill="#D1B06B"/>
<path d="M191.333 70.9745C191.341 70.7662 191.427 70.5684 191.574 70.421C191.721 70.2736 191.919 70.1875 192.127 70.1801C192.234 70.1768 192.341 70.195 192.441 70.2336C192.542 70.2722 192.633 70.3305 192.711 70.4049C192.787 70.4789 192.847 70.5675 192.889 70.6653C192.93 70.7631 192.951 70.8683 192.951 70.9745C192.951 71.0807 192.93 71.1858 192.889 71.2837C192.847 71.3815 192.787 71.47 192.711 71.5441C192.632 71.6158 192.54 71.6713 192.44 71.7073C192.34 71.7433 192.233 71.7592 192.127 71.7539C192.023 71.7597 191.918 71.7441 191.821 71.708C191.723 71.6719 191.633 71.6161 191.558 71.5441C191.484 71.4692 191.426 71.3802 191.387 71.2823C191.349 71.1844 191.33 71.0797 191.333 70.9745ZM191.483 80.6426V73.4777H192.756V80.6276L191.483 80.6426Z" fill="#D1B06B"/>
<path d="M209.557 77.3898H204.571C204.543 78.0387 204.769 78.6729 205.2 79.1585C205.415 79.3718 205.674 79.5368 205.958 79.6428C206.242 79.7487 206.545 79.7931 206.847 79.7731C207.646 79.7758 208.423 79.5062 209.048 79.0086V80.1328C208.311 80.6141 207.441 80.8501 206.563 80.8073C206.112 80.8305 205.661 80.7554 205.243 80.5872C204.824 80.419 204.446 80.1616 204.137 79.833C203.525 79.06 203.216 78.0899 203.268 77.105C203.23 76.1113 203.573 75.1408 204.226 74.3919C204.513 74.0523 204.871 73.7807 205.275 73.5966C205.679 73.4125 206.119 73.3207 206.563 73.3277C206.971 73.3058 207.379 73.3752 207.757 73.5307C208.135 73.6863 208.474 73.9241 208.749 74.227C209.308 74.9424 209.585 75.8386 209.528 76.7452L209.557 77.3898ZM208.3 76.3705C208.334 75.8307 208.169 75.2972 207.835 74.8716C207.682 74.6859 207.486 74.5399 207.265 74.4459C207.043 74.352 206.802 74.3129 206.563 74.3319C206.318 74.3332 206.076 74.3844 205.852 74.4823C205.628 74.5802 205.427 74.7229 205.26 74.9015C204.873 75.3128 204.631 75.8391 204.571 76.4005L208.3 76.3705Z" fill="#D1B06B"/>
<path d="M212.178 79.0987C212.775 79.5453 213.5 79.7872 214.245 79.7882C215.218 79.7882 215.742 79.4585 215.742 78.8139C215.744 78.685 215.717 78.5574 215.662 78.4406C215.608 78.3238 215.527 78.2208 215.428 78.1394C215.019 77.8674 214.576 77.6506 214.11 77.4949C213.541 77.3066 213.027 76.9825 212.612 76.5505C212.381 76.222 212.26 75.8282 212.268 75.4263C212.268 75.1307 212.341 74.8395 212.479 74.5783C212.617 74.317 212.817 74.0936 213.062 73.9274C213.646 73.5369 214.336 73.3378 215.038 73.3578C215.617 73.3526 216.192 73.4595 216.73 73.6726V74.9017C216.192 74.5514 215.561 74.3688 214.918 74.3771C214.569 74.3617 214.223 74.456 213.93 74.6469C213.813 74.7195 213.718 74.8213 213.652 74.9422C213.586 75.063 213.553 75.1989 213.556 75.3364C213.549 75.4616 213.57 75.5868 213.617 75.7032C213.663 75.8196 213.734 75.9246 213.825 76.0109C214.202 76.2669 214.609 76.4734 215.038 76.6255C215.64 76.802 216.194 77.1149 216.656 77.5398C216.94 77.8669 217.09 78.2903 217.075 78.724C217.077 79.0218 217.004 79.3153 216.863 79.5773C216.721 79.8393 216.516 80.0614 216.266 80.2229C215.649 80.6254 214.921 80.8245 214.185 80.7925C213.517 80.8093 212.854 80.6654 212.253 80.3728L212.178 79.0987Z" fill="#D1B06B"/>
<path d="M198.716 80.4174C197.777 80.3575 196.897 79.9422 196.254 79.2558C195.61 78.5695 195.252 77.6637 195.252 76.7225C195.252 75.7813 195.61 74.8755 196.254 74.1892C196.897 73.5028 197.777 73.0875 198.716 73.0276C199.351 72.9583 199.99 73.1036 200.533 73.4405C201.076 73.7773 201.49 74.2863 201.711 74.8863L200.318 75.4559C200.246 75.099 200.047 74.7804 199.758 74.5598C199.468 74.3391 199.109 74.2314 198.746 74.2568C197.533 74.2568 196.754 75.1262 196.754 76.715C196.754 78.3039 197.488 79.1882 198.716 79.1882C199.103 79.2177 199.487 79.1043 199.796 78.8696C200.105 78.6349 200.317 78.295 200.393 77.9142L201.89 78.3339C201.683 78.9948 201.254 79.5636 200.675 79.9434C200.096 80.3232 199.404 80.4907 198.716 80.4174Z" fill="#D1B06B"/>
<path d="M114.153 40.0064C114.467 40.4411 114.797 40.8608 115.126 41.2805L115.531 41.7302C115.905 42.1499 116.279 42.5696 116.684 42.9593L116.998 43.2591V10.5225C115.948 11.508 114.996 12.5922 114.153 13.7601V40.0064Z" fill="#D1B06B"/>
<path d="M110.379 22.1993C110.274 22.7389 110.185 23.2935 110.11 23.8481L110.02 24.4627C110.02 24.9124 110.02 25.3621 109.93 25.7968C109.84 26.2314 109.93 26.5312 109.93 26.891C109.93 27.5355 109.93 28.1801 110.02 28.8396C110.02 29.1843 110.02 29.5141 110.155 29.8589C110.289 30.2036 110.26 30.6833 110.334 31.088C110.409 31.4927 110.469 31.7175 110.544 32.0323C110.619 32.3471 110.754 32.8867 110.888 33.3064C111.023 33.7261 111.068 33.876 111.158 34.1458C111.248 34.4156 111.472 35.0302 111.652 35.4499C111.832 35.8696 111.862 35.9595 111.982 36.1993C112.101 36.4391 112.386 37.0837 112.626 37.5184L112.775 37.7732V16.0537C111.746 17.8909 110.98 19.8638 110.499 21.9145C110.469 22.0132 110.428 22.1086 110.379 22.1993Z" fill="#D1B06B"/>
<path d="M146.199 25.3769H149.044V38.0278C148.625 38.5824 148.311 38.9422 148.311 38.9422C146.428 41.2865 144.042 43.1771 141.331 44.4744C138.62 45.7717 135.652 46.4423 132.647 46.4368C132.062 46.4368 131.477 46.4068 130.895 46.3469L130.116 46.257C129.699 46.2151 129.284 46.1501 128.873 46.0621L128.274 45.9422C127.81 45.8373 127.346 45.7173 126.897 45.5824L126.462 45.4475C126.118 45.3426 125.788 45.2077 125.459 45.0878V8.67881L126.208 8.37902H126.342C126.867 8.21414 127.406 8.04926 127.945 7.92934L128.319 7.8394C128.783 7.73448 129.248 7.65954 129.727 7.58459L130.341 7.49465C130.73 7.49465 131.119 7.4197 131.524 7.40471C131.928 7.38972 132.272 7.40471 132.647 7.40471C135.655 7.3948 138.626 8.06344 141.341 9.36094C144.055 10.6584 146.442 12.5515 148.325 14.8994H151.86C149.795 11.6763 146.953 9.02561 143.595 7.19184C140.237 5.35807 136.472 4.40029 132.647 4.40686C131.972 4.40444 131.297 4.43947 130.625 4.51179C130.356 4.51179 130.101 4.51178 129.847 4.60172C129.322 4.60172 128.798 4.73662 128.274 4.84155L127.795 4.94647C127.181 5.08137 126.582 5.23127 125.983 5.41114H125.788C124.223 5.91 122.716 6.57848 121.296 7.40471H121.176C120.607 7.73448 120.053 8.09423 119.514 8.46896L119.17 8.70879C118.93 8.90365 118.675 9.0985 118.451 9.30835V44.5182L118.87 44.818C119.334 45.1627 119.798 45.5075 120.368 45.8223H120.457C121.213 46.2931 121.992 46.7234 122.793 47.1114L123.018 47.2163C123.542 47.4561 124.081 47.6809 124.62 47.8908L125.204 48.1006C125.699 48.2805 126.208 48.4304 126.702 48.5803L127.436 48.7602C127.915 48.8801 128.379 48.97 128.933 49.06L129.832 49.1949L131.119 49.3298C131.673 49.3298 132.243 49.3298 132.812 49.3298C135.882 49.3376 138.922 48.7272 141.752 47.5349C144.582 46.3427 147.143 44.5929 149.284 42.3897V49.4947H152.114V23.8779H146.439L146.199 25.3769ZM121.206 42.9293V10.8373C121.688 10.514 122.188 10.2187 122.704 9.95289V43.7987C122.194 43.4989 121.715 43.2441 121.206 42.9293Z" fill="#D1B06B"/>
<path d="M201.801 47.9957L197.173 37.758H202.489V34.7601H195.841L186.466 14.0749L184.1 9.02351L182.603 5.60596L181.105 9.06848L180.536 10.3276L180.327 10.8072L178.829 14.2698L178.051 15.9935L176.298 19.516L173.064 26.6359L169.305 34.925H162.656V37.9229H167.987L163.33 47.9957H161.998V49.4946H167.628V47.9957H166.415L170.114 39.8265L171.057 37.758H184.535L189.177 47.9957H187.604V49.4946H193.085L187.784 37.803H189.282L194.583 49.4946H197.712L192.411 37.803H193.909L196.08 42.4496L199.33 49.4946H203.298V47.9957H201.801ZM172.45 34.8351L177.871 22.8436L183.277 34.8351H172.45ZM186.421 34.8351L179.428 19.516L180.222 17.7773L187.994 34.925L186.421 34.8351ZM191.124 34.8351L181.794 14.2698L182.573 12.531L192.696 34.8651L191.124 34.8351Z" fill="#D1B06B"/>
<path d="M55.9758 26.4109L60.4683 16.548L50.0758 18.0169L49.327 14.7643L45.5983 19.2611L41.645 20.1904L43.9061 8.19895L39.2789 11.1968L38.4703 4.28674L37.3472 6.35527L33.6784 0.0297852L30.3539 6.29531L28.7666 4.52657L28.6468 11.1518L23.5853 8.37882L26.0861 20.3703L21.8183 18.8713L18.4789 15.0191L17.2959 18.1518L7.50238 16.3681L11.9948 26.0662L9.38921 27.4602L13.6421 30.0084L9.70368 31.927H16.9814L18.404 32.8563L12.6837 36.2589L21.6686 37.0683L20.3058 40.2011L28.6468 38.3574L27.958 40.366L32.8248 37.3681L32.4205 50.0341H35.2357L34.7266 37.473L39.7132 40.5009L39.1741 38.1626L47.3803 40.0962L46.0625 37.2182L54.5682 36.109L49.7313 32.7214L58.6264 27.2653L55.9758 26.4109ZM54.6581 26.5908L48.2339 25.8713L58.1172 18.9163L54.6581 26.5908ZM57.2337 18.1369L47.575 24.957L49.0725 18.5865L49.2222 19.2611L57.2337 18.1369ZM46.3321 20.2953L48.0392 18.2268L46.1823 25.9313L41.9295 28.9291L42.229 21.2396L46.3321 20.2953ZM34.3522 34.3403V29.0041L41.1508 22.094L40.8513 29.7536L34.3522 34.3403ZM28.6318 30.9827L27.7034 22.8585L33.2141 28.9891V34.3253L28.6318 30.9827ZM40.3421 21.2246L34.3522 27.3852V18.5116L38.021 14.3596L40.3421 21.0148V21.2246ZM34.3522 16.7279V4.28674L37.5718 13.0705L34.3522 16.7279ZM33.2141 16.6379L30.2192 13.0705L33.2141 4.49659V16.6379ZM29.8448 14.3296L33.2141 18.4366V27.2204L27.4938 21.0148L29.8448 14.3296ZM42.4087 10.5673L40.9112 18.7514L38.665 13.0705L42.4087 10.5673ZM37.9162 7.67432L38.2457 12.0212L36.6134 7.52443L37.2424 8.64863L37.9162 7.67432ZM30.7283 8.16897L30.9829 7.68932L29.8598 10.8521V7.41951L30.7283 8.16897ZM29.2308 12.6658L27.0595 19.0212L25.2026 10.5223L29.2308 12.6658ZM26.4006 21.5694L27.359 30.0683L22.6269 26.6208L20.0962 18.5116L21.2343 19.8306L26.4006 21.5694ZM18.0896 19.396L18.6886 17.897L21.0246 25.5116L10.8118 18.0919L18.0896 19.396ZM9.95825 18.8114L20.4406 26.4709L12.9532 26.7857L13.4025 26.5458L9.95825 18.8114ZM17.4457 30.7279H14.6154L16.1129 30.0234L12.5339 27.9398L21.983 27.5501L26.6701 30.9527L19.6619 32.2118L17.4457 30.7279ZM16.3824 35.3745L19.617 33.4559L27.8831 37.3231L22.3574 38.5373L23.3457 36.0041L16.3824 35.3745ZM29.71 36.8735L21.3241 33.0062L27.8681 31.8371L33.1243 35.6593L30.1293 37.548L30.4438 36.6486L29.71 36.8735ZM33.7083 48.76L33.9179 42.2546L34.1725 48.76H33.7083ZM34.3522 35.6893L41.5252 30.6229L47.3204 32.7514L38.4853 36.7985L37.7815 36.6336L38.1109 38.1326L34.3522 35.6893ZM51.6332 35.3596L44.5051 36.2889L45.5084 38.4623L40.2822 37.2332L48.758 33.336L51.6332 35.3596ZM48.758 32.0619L42.6483 29.8285L46.961 26.8306L55.7213 27.8199L48.758 32.0619Z" fill="#D1B06B"/>
<path d="M98.8637 27.1456L75.8324 10.8072C79.9505 7.31472 84.0985 5.86076 88.1567 6.47532C95.7939 7.61451 100.81 15.8136 100.81 15.8136H103.236C103.012 15.4389 97.6358 4.99138 88.4712 4.18196C85.3193 3.99192 82.167 4.54687 79.269 5.80197C76.371 7.05706 73.8087 8.97707 71.7892 11.4068L102.473 32.182L98.8637 27.1456Z" fill="#D1B06B"/>
<path d="M102.862 34.1904L70.9357 12.7407L69.9773 14.8542L102.518 36.7086L102.862 34.1904Z" fill="#D1B06B"/>
<path d="M69.9773 19.5609L101.679 41.1755L102.263 38.8222L69.9773 16.8179V19.5609Z" fill="#D1B06B"/>
<path d="M72.4931 26.3061L97.4112 42.7944C93.7943 45.6606 89.2781 47.1479 84.6676 46.9914C79.681 46.6017 75.4132 44.1584 71.2652 38.8822L68.7943 39.0021C73.2868 44.8029 78.9622 48.895 84.5778 49.3297H85.8955C91.1369 49.0896 96.1307 47.0276 100.017 43.4989L101.065 42.4946L70.2918 21.5396L72.4931 26.3061Z" fill="#D1B06B"/>
<path d="M217 58.728H0.643921V59.8522H217V58.728Z" fill="#D1B06B"/>
</g>
<defs>
<clipPath id="clip0_1_603">
<rect width="217" height="84" fill="white"/>
</clipPath>
</defs>
</svg>
