<svg width="61" height="61" viewBox="0 0 61 61" fill="none" xmlns="http://www.w3.org/2000/svg">
<g id="icon / feathericons / watch">
<path id="Vector" d="M30.5 47.8096C40.165 47.8096 48 39.9746 48 30.3096C48 20.6446 40.165 12.8096 30.5 12.8096C20.835 12.8096 13 20.6446 13 30.3096C13 39.9746 20.835 47.8096 30.5 47.8096Z" stroke="#D1B06B" stroke-width="2" stroke-linecap="round" stroke-linejoin="round"/>
<path id="Vector_2" d="M30.5 22.8096V30.3096L34.25 34.0596" stroke="#D1B06B" stroke-width="2" stroke-linecap="round" stroke-linejoin="round"/>
<path id="Vector_3" d="M41.775 43.6846L40.9 53.2596C40.7874 54.5062 40.2113 55.6652 39.2855 56.5077C38.3597 57.3501 37.1517 57.8147 35.9 57.8096H25.075C23.8233 57.8147 22.6153 57.3501 21.6895 56.5077C20.7638 55.6652 20.1877 54.5062 20.075 53.2596L19.2 43.6846M19.225 16.9346L20.1 7.35961C20.2123 6.1173 20.7848 4.96182 21.7053 4.11999C22.6258 3.27816 23.8276 2.81079 25.075 2.80961H35.95C37.2017 2.80453 38.4098 3.26911 39.3355 4.11154C40.2613 4.95398 40.8374 6.113 40.95 7.35961L41.825 16.9346" stroke="#D1B06B" stroke-width="2" stroke-linecap="round" stroke-linejoin="round"/>
</g>
</svg>
